
<svg width="53" height="47" viewBox="0 0 53 47" fill="none" xmlns="http://www.w3.org/2000/svg">
    <path d="M0 7C0 5.89543 0.895431 5 2 5H22C23.1046 5 24 5.89543 24 7V10C24 11.1046 23.1046 12 22 12H2C0.89543 12 0 11.1046 0 10V7Z" fill="white"/>
    <path d="M0 25C0 23.8954 0.895431 23 2 23H22C23.1046 23 24 23.8954 24 25V28C24 29.1046 23.1046 30 22 30H2C0.89543 30 0 29.1046 0 28V25Z" fill="white"/>
    <path d="M0 42C0 40.8954 0.895431 40 2 40H51C52.1046 40 53 40.8954 53 42V45C53 46.1046 52.1046 47 51 47H2C0.895429 47 0 46.1046 0 45V42Z" fill="white"/>
    <path d="M51.5422 16.0994C52.2762 16.6478 52.2762 17.7529 51.5422 18.3251L35.7491 30.6373C34.8279 31.3555 33.5 30.7201 33.5 29.5609L33.5 5.44905C33.5 4.28994 34.8279 3.61136 35.7491 4.29968L51.5422 16.0994Z" fill="white"/>
</svg>
