<svg class="is-icon-defs" aria-hidden="true" version="1.1" xmlns="http://www.w3.org/2000/svg"
     xmlns:xlink="http://www.w3.org/1999/xlink">
    <defs>
        <symbol id="home" viewBox="0 0 31 26">
            <path d="M12.4 26V16.8235H18.6V26H26.35V13.7647H31L15.5 0L0 13.7647H4.65V26H12.4Z"/>
        </symbol>

        <symbol id="heart-solid" viewBox="0 0 31 29">
            <path
                d="M15.5 28.4425L13.2525 26.3965C5.27 19.158 0 14.384 0 8.525C0 3.751 3.751 0 8.525 0C11.222 0 13.8105 1.2555 15.5 3.2395C17.1895 1.2555 19.778 0 22.475 0C27.249 0 31 3.751 31 8.525C31 14.384 25.73 19.158 17.7475 26.412L15.5 28.4425Z"/>
        </symbol>
		
		<symbol id="heart" viewBox="0 0 24 24" ><path d="M0 0h24v24H0z" fill="none"/><path d="M16.5 3c-1.74 0-3.41.81-4.5 2.09C10.91 3.81 9.24 3 7.5 3 4.42 3 2 5.42 2 8.5c0 3.78 3.4 6.86 8.55 11.54L12 21.35l1.45-1.32C18.6 15.36 22 12.28 22 8.5 22 5.42 19.58 3 16.5 3zm-4.4 15.55l-.1.1-.1-.1C7.14 14.24 4 11.39 4 8.5 4 6.5 5.5 5 7.5 5c1.54 0 3.04.99 3.57 2.36h1.87C13.46 5.99 14.96 5 16.5 5c2 0 3.5 1.5 3.5 3.5 0 2.89-3.14 5.74-7.9 10.05z"/></symbol>

        <symbol id="gear" viewBox="0 0 26 26">
            <path
                d="M22.52 14.2533C22.5733 13.8533 22.6 13.44 22.6 13C22.6 12.5733 22.5733 12.1466 22.5067 11.7466L25.2133 9.63998C25.4533 9.45331 25.52 9.09331 25.3733 8.82665L22.8133 4.39998C22.6533 4.10665 22.32 4.01331 22.0267 4.10665L18.84 5.38665C18.1733 4.87998 17.4667 4.45331 16.68 4.13331L16.2 0.746648C16.1467 0.426648 15.88 0.199982 15.56 0.199982H10.44C10.12 0.199982 9.86665 0.426648 9.81332 0.746648L9.33332 4.13331C8.54665 4.45331 7.82665 4.89331 7.17332 5.38665L3.98665 4.10665C3.69332 3.99998 3.35998 4.10665 3.19998 4.39998L0.653317 8.82665C0.493317 9.10665 0.54665 9.45331 0.813317 9.63998L3.51998 11.7466C3.45332 12.1466 3.39998 12.5866 3.39998 13C3.39998 13.4133 3.42665 13.8533 3.49332 14.2533L0.78665 16.36C0.54665 16.5466 0.479984 16.9066 0.62665 17.1733L3.18665 21.6C3.34665 21.8933 3.67998 21.9866 3.97332 21.8933L7.15998 20.6133C7.82665 21.12 8.53332 21.5466 9.31998 21.8666L9.79998 25.2533C9.86665 25.5733 10.12 25.8 10.44 25.8H15.56C15.88 25.8 16.1467 25.5733 16.1867 25.2533L16.6667 21.8666C17.4533 21.5466 18.1733 21.12 18.8267 20.6133L22.0133 21.8933C22.3067 22 22.64 21.8933 22.8 21.6L25.36 17.1733C25.52 16.88 25.4533 16.5466 25.2 16.36L22.52 14.2533ZM13 17.8C10.36 17.8 8.19998 15.64 8.19998 13C8.19998 10.36 10.36 8.19998 13 8.19998C15.64 8.19998 17.8 10.36 17.8 13C17.8 15.64 15.64 17.8 13 17.8Z"/>
        </symbol>

        <symbol id="plus" viewBox="0 0 35 35">
            <path d="M35 20H20V35H15V20H0V15H15V0H20V15H35V20Z"/>
        </symbol>

        <symbol id="directory" viewBox="0 0 101 81">
            <path
                d="M90.9 10.1H45.45L35.35 0H10.1C4.545 0 0 4.545 0 10.1V30.3H101V20.2C101 14.645 96.455 10.1 90.9 10.1Z"
                fill="#275EAF"/>
            <path
                d="M90.9 10.1H10.1C4.545 10.1 0 14.645 0 20.2V70.7C0 76.255 4.545 80.8 10.1 80.8H90.9C96.455 80.8 101 76.255 101 70.7V20.2C101 14.645 96.455 10.1 90.9 10.1Z"
                fill="#5E9FFF"/>
        </symbol>

        <symbol id="video" viewBox="0 0 96 77">
            <path
                d="M76.6667 0L86.25 19.1667H71.875L62.2917 0H52.7083L62.2917 19.1667H47.9167L38.3333 0H28.75L38.3333 19.1667H23.9583L14.375 0H9.58333C4.3125 0 0.0479166 4.3125 0.0479166 9.58333L0 67.0833C0 72.3542 4.3125 76.6667 9.58333 76.6667H86.25C91.5208 76.6667 95.8333 72.3542 95.8333 67.0833V0H76.6667Z"
                fill="#5E9FFF"/>
            <g clip-path="url(#clip0_38_38)">
                <path d="M44.1665 38.0834V56.0834L58.4165 47.0834L44.1665 38.0834Z" fill="#275EAF"/>
            </g>
            <defs>
                <clipPath id="clip0_38_38">
                    <rect width="18" height="18" fill="white" transform="translate(40.4165 38.8334)"/>
                </clipPath>
            </defs>
        </symbol>

        <symbol id="check" viewBox="0 0 17 13">
            <path
                d="M5.8751 10.175L2.2001 6.49999L0.975098 7.72499L5.8751 12.625L16.3751 2.12499L15.1501 0.899994L5.8751 10.175Z"/>
        </symbol>

		<symbol id="trash" viewBox="0 0 24 24"><path d="M0 0h24v24H0z" fill="none"/><path d="M6 19c0 1.1.9 2 2 2h8c1.1 0 2-.9 2-2V7H6v12zM19 4h-3.5l-1-1h-5l-1 1H5v2h14V4z"/></symbol>
		

<symbol id="logo" viewBox="0 0 104 110" fill="none">
<path id="one" fill-rule="evenodd" clip-rule="evenodd" d="M98.4698 30.4299C100.088 28.6818 101.346 26.632 102.171 24.3975C102.997 22.1631 103.374 19.7879 103.281 17.4077C103.188 15.0275 102.627 12.6889 101.63 10.5256C100.633 8.36228 99.2192 6.41667 97.4698 4.79993C93.9381 1.53456 89.2541 -0.194472 84.4478 -0.00694561C79.6415 0.180581 75.1064 2.26931 71.8399 5.79993L4.83985 78.4599C2.46394 81.0888 0.898084 84.348 0.330624 87.8457C-0.236835 91.3433 0.218263 94.9305 1.64118 98.1756C3.0641 101.421 5.39425 104.186 8.35136 106.138C11.3085 108.09 14.7666 109.147 18.3098 109.18H66.7898C66.7852 109.16 66.7852 109.14 66.7898 109.12C62.2161 109.154 57.7994 107.453 54.4298 104.36C51.3771 101.56 49.3757 97.7996 48.7588 93.7037C48.142 89.6079 48.947 85.4244 51.0398 81.8499C67.3998 64.1199 86.3698 43.5399 98.4698 30.4299Z"/>
<path id="two" fill-rule="evenodd" clip-rule="evenodd" d="M95.3698 86.5499C94.5421 85.4901 93.6434 84.4878 92.6798 83.5499C89.3141 80.1733 85.3149 77.4944 80.9115 75.6668C76.5082 73.8392 71.7874 72.8989 67.0198 72.8999H58.6898L53.3398 78.7599C51.7295 80.5142 50.4805 82.5685 49.6643 84.8056C48.848 87.0427 48.4805 89.4186 48.5826 91.7978C48.6848 94.1769 49.2546 96.5126 50.2596 98.6715C51.2646 100.83 52.685 102.77 54.4398 104.38C57.6973 107.376 61.9444 109.067 66.3698 109.13H103.3C103.301 100.921 100.504 92.956 95.3698 86.5499Z" fill="#101F28"/>
<path id="three" fill-rule="evenodd" clip-rule="evenodd" d="M69.9797 54.23C69.9884 58.7006 68.3387 63.0156 65.3497 66.34L98.4697 30.43C98.4697 30.38 98.5597 30.32 98.6097 30.26C98.9297 29.9 99.2497 29.53 99.5397 29.14L99.7597 28.84C100.05 28.4577 100.321 28.0605 100.57 27.65C100.63 27.55 100.7 27.45 100.76 27.34C101 26.93 101.23 26.51 101.44 26.08C101.44 25.98 101.54 25.88 101.58 25.78C101.79 25.34 101.97 24.88 102.14 24.42C102.177 24.3351 102.211 24.2483 102.24 24.16C102.41 23.69 102.55 23.21 102.68 22.73L102.74 22.48C102.86 22 102.96 21.48 103.04 21.02C103.04 20.92 103.04 20.83 103.04 20.74C103.11 20.26 103.16 19.74 103.19 19.29C103.19 19.18 103.19 19.08 103.19 18.97C103.19 18.69 103.19 18.42 103.19 18.13C103.19 17.92 103.19 17.72 103.19 17.51C103.19 17.3 103.19 17.33 103.19 17.25C103.19 16.73 103.13 16.25 103.06 15.71C103.06 15.71 103.06 15.63 103.06 15.6C102.823 13.89 102.341 12.2229 101.63 10.65V10.6C101.39 10.0867 101.13 9.5867 100.85 9.10003C100.829 9.0533 100.802 9.00958 100.77 8.97003C100.5 8.50003 100.21 8.05003 99.8997 7.61003L99.7697 7.44003C99.4497 7.01003 99.1197 6.60003 98.7697 6.20003L98.6097 6.03003C98.2497 5.63003 97.8797 5.25003 97.4897 4.88003L97.4297 4.76003L97.3297 4.68003C96.9397 4.33003 96.5397 3.99003 96.1197 3.68003L95.8697 3.50003C95.4797 3.21003 95.0797 2.94003 94.6597 2.68003L94.3297 2.48003C93.9397 2.25003 93.5397 2.04003 93.1297 1.83003L92.7197 1.64003C92.3397 1.46003 91.9397 1.30003 91.5397 1.14003L91.0597 0.970029C90.6797 0.836696 90.2897 0.716696 89.8897 0.610029L89.3297 0.470029C88.9597 0.380029 88.5897 0.310029 88.2197 0.240029L87.5397 0.140029L86.5397 0.0300293H85.7197H85.1797H0.179688C0.18499 9.64331 4.00757 18.861 10.8071 25.6568C17.6066 32.4525 26.8264 36.27 36.4397 36.27H54.2297C58.5864 36.8448 62.5858 38.9833 65.4832 42.2872C68.3806 45.5912 69.9786 49.8356 69.9797 54.23Z" fill="#101F28"/>
</symbol>


		<symbol id="left-chevron" viewBox="0 0 24 24"><path d="M0 0h24v24H0z" fill="none"/><path d="M11.67 3.87L9.9 2.1 0 12l9.9 9.9 1.77-1.77L3.54 12z"/></symbol>

    </defs>
</svg>
