<svg class="is-icon-defs" aria-hidden="true" version="1.1" xmlns="http://www.w3.org/2000/svg"
     xmlns:xlink="http://www.w3.org/1999/xlink">
    <defs>
        <symbol id="home" viewBox="0 0 31 26">
            <path d="M12.4 26V16.8235H18.6V26H26.35V13.7647H31L15.5 0L0 13.7647H4.65V26H12.4Z"/>
        </symbol>

        <symbol id="heart-solid" viewBox="0 0 31 29">
            <path
                d="M15.5 28.4425L13.2525 26.3965C5.27 19.158 0 14.384 0 8.525C0 3.751 3.751 0 8.525 0C11.222 0 13.8105 1.2555 15.5 3.2395C17.1895 1.2555 19.778 0 22.475 0C27.249 0 31 3.751 31 8.525C31 14.384 25.73 19.158 17.7475 26.412L15.5 28.4425Z"/>
        </symbol>
		
		<symbol id="heart" viewBox="0 0 24 24" ><path d="M0 0h24v24H0z" fill="none"/><path d="M16.5 3c-1.74 0-3.41.81-4.5 2.09C10.91 3.81 9.24 3 7.5 3 4.42 3 2 5.42 2 8.5c0 3.78 3.4 6.86 8.55 11.54L12 21.35l1.45-1.32C18.6 15.36 22 12.28 22 8.5 22 5.42 19.58 3 16.5 3zm-4.4 15.55l-.1.1-.1-.1C7.14 14.24 4 11.39 4 8.5 4 6.5 5.5 5 7.5 5c1.54 0 3.04.99 3.57 2.36h1.87C13.46 5.99 14.96 5 16.5 5c2 0 3.5 1.5 3.5 3.5 0 2.89-3.14 5.74-7.9 10.05z"/></symbol>

        <symbol id="gear" viewBox="0 0 26 26">
            <path
                d="M22.52 14.2533C22.5733 13.8533 22.6 13.44 22.6 13C22.6 12.5733 22.5733 12.1466 22.5067 11.7466L25.2133 9.63998C25.4533 9.45331 25.52 9.09331 25.3733 8.82665L22.8133 4.39998C22.6533 4.10665 22.32 4.01331 22.0267 4.10665L18.84 5.38665C18.1733 4.87998 17.4667 4.45331 16.68 4.13331L16.2 0.746648C16.1467 0.426648 15.88 0.199982 15.56 0.199982H10.44C10.12 0.199982 9.86665 0.426648 9.81332 0.746648L9.33332 4.13331C8.54665 4.45331 7.82665 4.89331 7.17332 5.38665L3.98665 4.10665C3.69332 3.99998 3.35998 4.10665 3.19998 4.39998L0.653317 8.82665C0.493317 9.10665 0.54665 9.45331 0.813317 9.63998L3.51998 11.7466C3.45332 12.1466 3.39998 12.5866 3.39998 13C3.39998 13.4133 3.42665 13.8533 3.49332 14.2533L0.78665 16.36C0.54665 16.5466 0.479984 16.9066 0.62665 17.1733L3.18665 21.6C3.34665 21.8933 3.67998 21.9866 3.97332 21.8933L7.15998 20.6133C7.82665 21.12 8.53332 21.5466 9.31998 21.8666L9.79998 25.2533C9.86665 25.5733 10.12 25.8 10.44 25.8H15.56C15.88 25.8 16.1467 25.5733 16.1867 25.2533L16.6667 21.8666C17.4533 21.5466 18.1733 21.12 18.8267 20.6133L22.0133 21.8933C22.3067 22 22.64 21.8933 22.8 21.6L25.36 17.1733C25.52 16.88 25.4533 16.5466 25.2 16.36L22.52 14.2533ZM13 17.8C10.36 17.8 8.19998 15.64 8.19998 13C8.19998 10.36 10.36 8.19998 13 8.19998C15.64 8.19998 17.8 10.36 17.8 13C17.8 15.64 15.64 17.8 13 17.8Z"/>
        </symbol>

        <symbol id="plus" viewBox="0 0 35 35">
            <path d="M35 20H20V35H15V20H0V15H15V0H20V15H35V20Z"/>
        </symbol>

        <symbol id="directory" viewBox="0 0 101 81">
            <path
                d="M90.9 10.1H45.45L35.35 0H10.1C4.545 0 0 4.545 0 10.1V30.3H101V20.2C101 14.645 96.455 10.1 90.9 10.1Z"
                fill="#275EAF"/>
            <path
                d="M90.9 10.1H10.1C4.545 10.1 0 14.645 0 20.2V70.7C0 76.255 4.545 80.8 10.1 80.8H90.9C96.455 80.8 101 76.255 101 70.7V20.2C101 14.645 96.455 10.1 90.9 10.1Z"
                fill="#5E9FFF"/>
        </symbol>

        <symbol id="video" viewBox="0 0 96 77">
            <path
                d="M76.6667 0L86.25 19.1667H71.875L62.2917 0H52.7083L62.2917 19.1667H47.9167L38.3333 0H28.75L38.3333 19.1667H23.9583L14.375 0H9.58333C4.3125 0 0.0479166 4.3125 0.0479166 9.58333L0 67.0833C0 72.3542 4.3125 76.6667 9.58333 76.6667H86.25C91.5208 76.6667 95.8333 72.3542 95.8333 67.0833V0H76.6667Z"
                fill="#5E9FFF"/>
            <g clip-path="url(#clip0_38_38)">
                <path d="M44.1665 38.0834V56.0834L58.4165 47.0834L44.1665 38.0834Z" fill="#275EAF"/>
            </g>
            <defs>
                <clipPath id="clip0_38_38">
                    <rect width="18" height="18" fill="white" transform="translate(40.4165 38.8334)"/>
                </clipPath>
            </defs>
        </symbol>

        <symbol id="check" viewBox="0 0 17 13">
            <path
                d="M5.8751 10.175L2.2001 6.49999L0.975098 7.72499L5.8751 12.625L16.3751 2.12499L15.1501 0.899994L5.8751 10.175Z"/>
        </symbol>

		<symbol id="trash" viewBox="0 0 24 24"><path d="M0 0h24v24H0z" fill="none"/><path d="M6 19c0 1.1.9 2 2 2h8c1.1 0 2-.9 2-2V7H6v12zM19 4h-3.5l-1-1h-5l-1 1H5v2h14V4z"/></symbol>
		
		<symbol id="logo" viewBox="0 0 103.29 109.18"><defs><style>.cls-1{fill:#ff7915;}.cls-1,.cls-2{fill-rule:evenodd;}.cls-2{fill:#101f28;}</style></defs><g id="OBJECTS"><path class="cls-1" d="M103.86,33.67a18.13,18.13,0,0,0-1-25.63h0a18.14,18.14,0,0,0-25.63,1l-67,72.66A18.39,18.39,0,0,0,23.7,112.42H72.18a.13.13,0,0,1,0-.06,18.08,18.08,0,0,1-12.36-4.76h0a18.12,18.12,0,0,1-3.39-22.51C72.79,67.36,91.76,46.78,103.86,33.67Z" transform="translate(-5.39 -3.24)"/><path class="cls-2" d="M100.76,89.79l0,0a29.69,29.69,0,0,0-2.69-3A36.22,36.22,0,0,0,72.41,76.14H64.08L58.73,82a18.13,18.13,0,0,0,1.1,25.62h0a18,18,0,0,0,11.93,4.75v0h36.93A36.1,36.1,0,0,0,100.76,89.79Z" transform="translate(-5.39 -3.24)"/><path class="cls-2" d="M75.37,57.47h0a18.06,18.06,0,0,1-4.63,12.11l33.12-35.91c0-.05.09-.11.14-.17.32-.36.64-.73.93-1.12l.22-.3a13.84,13.84,0,0,0,.81-1.19c.06-.1.13-.2.19-.31.24-.41.47-.83.68-1.26,0-.1.1-.2.14-.3.21-.44.39-.9.56-1.36a2.77,2.77,0,0,0,.1-.26c.17-.47.31-.95.44-1.43l.06-.25c.12-.48.22-1,.3-1.46,0-.1,0-.19,0-.28.07-.48.12-1,.15-1.45,0-.11,0-.21,0-.32,0-.28,0-.55,0-.84h0c0-.21,0-.41,0-.62s0-.18,0-.26c0-.52-.06-1-.13-1.54,0,0,0-.08,0-.11a18,18,0,0,0-1.43-4.95l0-.05q-.36-.77-.78-1.5a.57.57,0,0,0-.08-.13c-.27-.47-.56-.92-.87-1.36l-.13-.17c-.32-.43-.65-.84-1-1.24L104,9.27c-.36-.4-.73-.78-1.12-1.15L102.82,8h0l-.1-.08c-.39-.35-.79-.69-1.21-1l-.25-.18c-.39-.29-.79-.56-1.21-.82l-.33-.2c-.39-.23-.79-.44-1.2-.65l-.41-.19c-.38-.18-.78-.34-1.18-.5l-.48-.17q-.57-.2-1.17-.36l-.56-.14c-.37-.09-.74-.16-1.11-.23l-.68-.1-1-.11-.82,0-.54,0h-85A36.26,36.26,0,0,0,41.83,39.51H59.62A18.12,18.12,0,0,1,75.37,57.47Z" transform="translate(-5.39 -3.24)"/></g></symbol>

    </defs>
</svg>
